<svg width="66" height="67" viewBox="0 0 66 67" fill="none" xmlns="http://www.w3.org/2000/svg">
<g filter="url(#filter0_d_103_2472)">
<path fill-rule="evenodd" clip-rule="evenodd" d="M13.5 5H48.5C52.75 5 56 8.25 56 12.5V47.5C56 51.75 52.75 55 48.5 55H13.5C9.25 55 6 51.75 6 47.5V12.5C6 8.25 9.25 5 13.5 5ZM48.5 50C50 50 51 49 51 47.5V12.5C51 11 50 10 48.5 10H13.5C12 10 11 11 11 12.5V47.5C11 49 12 50 13.5 50H48.5Z" fill="#B9A46C" fill-opacity="0.3"/>
<mask id="mask0_103_2472" style="mask-type:luminance" maskUnits="userSpaceOnUse" x="6" y="5" width="50" height="50">
<path fill-rule="evenodd" clip-rule="evenodd" d="M13.5 5H48.5C52.75 5 56 8.25 56 12.5V47.5C56 51.75 52.75 55 48.5 55H13.5C9.25 55 6 51.75 6 47.5V12.5C6 8.25 9.25 5 13.5 5ZM48.5 50C50 50 51 49 51 47.5V12.5C51 11 50 10 48.5 10H13.5C12 10 11 11 11 12.5V47.5C11 49 12 50 13.5 50H48.5Z" fill="white"/>
</mask>
<g mask="url(#mask0_103_2472)">
<path fill-rule="evenodd" clip-rule="evenodd" d="M1 0H61V60H1V0Z" fill="#B9A46C" fill-opacity="0.3"/>
</g>
<path fill-rule="evenodd" clip-rule="evenodd" d="M23.5 23.0417C25.6958 23.0417 27.375 21.3625 27.375 19.1667C27.375 16.9708 25.6958 15.2917 23.5 15.2917C21.3042 15.2917 19.625 16.9708 19.625 19.1667C19.625 21.3625 21.3042 23.0417 23.5 23.0417ZM19.625 29.4999C19.625 27.3041 21.3042 25.6249 23.5 25.6249C25.6958 25.6249 27.375 27.3041 27.375 29.4999C27.375 31.6958 25.6958 33.3749 23.5 33.3749C21.3042 33.3749 19.625 31.6958 19.625 29.4999ZM22.2083 29.4999C22.2083 30.2749 22.725 30.7916 23.5 30.7916C24.275 30.7916 24.7917 30.2749 24.7917 29.4999C24.7917 28.7249 24.275 28.2083 23.5 28.2083C22.725 28.2083 22.2083 28.7249 22.2083 29.4999ZM24.7917 19.1666C24.7917 18.3916 24.275 17.8749 23.5 17.8749C22.725 17.8749 22.2083 18.3916 22.2083 19.1666C22.2083 19.9416 22.725 20.4583 23.5 20.4583C24.275 20.4583 24.7917 19.9416 24.7917 19.1666ZM23.5 35.9583C21.3042 35.9583 19.625 37.6374 19.625 39.8333C19.625 42.0291 21.3042 43.7083 23.5 43.7083C25.6958 43.7083 27.375 42.0291 27.375 39.8333C27.375 37.6374 25.6958 35.9583 23.5 35.9583ZM22.2083 39.8333C22.2083 40.6083 22.725 41.1249 23.5 41.1249C24.275 41.1249 24.7917 40.6083 24.7917 39.8333C24.7917 39.0583 24.275 38.5416 23.5 38.5416C22.725 38.5416 22.2083 39.0583 22.2083 39.8333Z" fill="#B9A46C" fill-opacity="0.3"/>
<mask id="mask1_103_2472" style="mask-type:luminance" maskUnits="userSpaceOnUse" x="19" y="15" width="9" height="29">
<path fill-rule="evenodd" clip-rule="evenodd" d="M23.5 23.0417C25.6958 23.0417 27.375 21.3625 27.375 19.1667C27.375 16.9708 25.6958 15.2917 23.5 15.2917C21.3042 15.2917 19.625 16.9708 19.625 19.1667C19.625 21.3625 21.3042 23.0417 23.5 23.0417ZM19.625 29.4999C19.625 27.3041 21.3042 25.6249 23.5 25.6249C25.6958 25.6249 27.375 27.3041 27.375 29.4999C27.375 31.6958 25.6958 33.3749 23.5 33.3749C21.3042 33.3749 19.625 31.6958 19.625 29.4999ZM22.2083 29.4999C22.2083 30.2749 22.725 30.7916 23.5 30.7916C24.275 30.7916 24.7917 30.2749 24.7917 29.4999C24.7917 28.7249 24.275 28.2083 23.5 28.2083C22.725 28.2083 22.2083 28.7249 22.2083 29.4999ZM24.7917 19.1666C24.7917 18.3916 24.275 17.8749 23.5 17.8749C22.725 17.8749 22.2083 18.3916 22.2083 19.1666C22.2083 19.9416 22.725 20.4583 23.5 20.4583C24.275 20.4583 24.7917 19.9416 24.7917 19.1666ZM23.5 35.9583C21.3042 35.9583 19.625 37.6374 19.625 39.8333C19.625 42.0291 21.3042 43.7083 23.5 43.7083C25.6958 43.7083 27.375 42.0291 27.375 39.8333C27.375 37.6374 25.6958 35.9583 23.5 35.9583ZM22.2083 39.8333C22.2083 40.6083 22.725 41.1249 23.5 41.1249C24.275 41.1249 24.7917 40.6083 24.7917 39.8333C24.7917 39.0583 24.275 38.5416 23.5 38.5416C22.725 38.5416 22.2083 39.0583 22.2083 39.8333Z" fill="white"/>
</mask>
<g mask="url(#mask1_103_2472)">
<path fill-rule="evenodd" clip-rule="evenodd" d="M8 14H39V45H8V14Z" fill="#B9A46C" fill-opacity="0.3"/>
</g>
<path fill-rule="evenodd" clip-rule="evenodd" d="M38.5 23.0417C40.6958 23.0417 42.375 21.3625 42.375 19.1667C42.375 16.9708 40.6958 15.2917 38.5 15.2917C36.3042 15.2917 34.625 16.9708 34.625 19.1667C34.625 21.3625 36.3042 23.0417 38.5 23.0417ZM34.625 29.4999C34.625 27.3041 36.3042 25.6249 38.5 25.6249C40.6958 25.6249 42.375 27.3041 42.375 29.4999C42.375 31.6958 40.6958 33.3749 38.5 33.3749C36.3042 33.3749 34.625 31.6958 34.625 29.4999ZM37.2083 29.4999C37.2083 30.2749 37.725 30.7916 38.5 30.7916C39.275 30.7916 39.7917 30.2749 39.7917 29.4999C39.7917 28.7249 39.275 28.2083 38.5 28.2083C37.725 28.2083 37.2083 28.7249 37.2083 29.4999ZM39.7917 19.1666C39.7917 18.3916 39.275 17.8749 38.5 17.8749C37.725 17.8749 37.2083 18.3916 37.2083 19.1666C37.2083 19.9416 37.725 20.4583 38.5 20.4583C39.275 20.4583 39.7917 19.9416 39.7917 19.1666ZM38.5 35.9583C36.3042 35.9583 34.625 37.6374 34.625 39.8333C34.625 42.0291 36.3042 43.7083 38.5 43.7083C40.6958 43.7083 42.375 42.0291 42.375 39.8333C42.375 37.6374 40.6958 35.9583 38.5 35.9583ZM37.2083 39.8333C37.2083 40.6083 37.725 41.1249 38.5 41.1249C39.275 41.1249 39.7917 40.6083 39.7917 39.8333C39.7917 39.0583 39.275 38.5416 38.5 38.5416C37.725 38.5416 37.2083 39.0583 37.2083 39.8333Z" fill="#B9A46C" fill-opacity="0.3"/>
<mask id="mask2_103_2472" style="mask-type:luminance" maskUnits="userSpaceOnUse" x="34" y="15" width="9" height="29">
<path fill-rule="evenodd" clip-rule="evenodd" d="M38.5 23.0417C40.6958 23.0417 42.375 21.3625 42.375 19.1667C42.375 16.9708 40.6958 15.2917 38.5 15.2917C36.3042 15.2917 34.625 16.9708 34.625 19.1667C34.625 21.3625 36.3042 23.0417 38.5 23.0417ZM34.625 29.4999C34.625 27.3041 36.3042 25.6249 38.5 25.6249C40.6958 25.6249 42.375 27.3041 42.375 29.4999C42.375 31.6958 40.6958 33.3749 38.5 33.3749C36.3042 33.3749 34.625 31.6958 34.625 29.4999ZM37.2083 29.4999C37.2083 30.2749 37.725 30.7916 38.5 30.7916C39.275 30.7916 39.7917 30.2749 39.7917 29.4999C39.7917 28.7249 39.275 28.2083 38.5 28.2083C37.725 28.2083 37.2083 28.7249 37.2083 29.4999ZM39.7917 19.1666C39.7917 18.3916 39.275 17.8749 38.5 17.8749C37.725 17.8749 37.2083 18.3916 37.2083 19.1666C37.2083 19.9416 37.725 20.4583 38.5 20.4583C39.275 20.4583 39.7917 19.9416 39.7917 19.1666ZM38.5 35.9583C36.3042 35.9583 34.625 37.6374 34.625 39.8333C34.625 42.0291 36.3042 43.7083 38.5 43.7083C40.6958 43.7083 42.375 42.0291 42.375 39.8333C42.375 37.6374 40.6958 35.9583 38.5 35.9583ZM37.2083 39.8333C37.2083 40.6083 37.725 41.1249 38.5 41.1249C39.275 41.1249 39.7917 40.6083 39.7917 39.8333C39.7917 39.0583 39.275 38.5416 38.5 38.5416C37.725 38.5416 37.2083 39.0583 37.2083 39.8333Z" fill="white"/>
</mask>
<g mask="url(#mask2_103_2472)">
<path fill-rule="evenodd" clip-rule="evenodd" d="M23 14H54V45H23V14Z" fill="#B9A46C" fill-opacity="0.3"/>
</g>
</g>
<defs>
<filter id="filter0_d_103_2472" x="0" y="0" width="66" height="67" filterUnits="userSpaceOnUse" color-interpolation-filters="sRGB">
<feFlood flood-opacity="0" result="BackgroundImageFix"/>
<feColorMatrix in="SourceAlpha" type="matrix" values="0 0 0 0 0 0 0 0 0 0 0 0 0 0 0 0 0 0 127 0" result="hardAlpha"/>
<feOffset dx="2" dy="4"/>
<feGaussianBlur stdDeviation="1.5"/>
<feComposite in2="hardAlpha" operator="out"/>
<feColorMatrix type="matrix" values="0 0 0 0 0 0 0 0 0 0 0 0 0 0 0 0 0 0 0.75 0"/>
<feBlend mode="normal" in2="BackgroundImageFix" result="effect1_dropShadow_103_2472"/>
<feBlend mode="normal" in="SourceGraphic" in2="effect1_dropShadow_103_2472" result="shape"/>
</filter>
</defs>
</svg>
