<svg width="60" height="60" viewBox="0 0 60 60" fill="none" xmlns="http://www.w3.org/2000/svg">
<g filter="url(#filter0_d_265_1821)">
<path fill-rule="evenodd" clip-rule="evenodd" d="M45.675 34.65C45.9 34.2 46.35 33.75 47.25 33.75C51.075 33.75 54 30.825 54 27C54 23.175 51.075 20.25 47.25 20.25H46.8C46.35 20.25 45.9 20.025 45.675 19.575C45.675 19.35 45.675 19.35 45.45 19.125C45.225 18.675 45.225 18 45.9 17.325C48.6 14.625 48.6 10.35 45.9 7.875C44.55 6.525 42.975 5.85 41.175 5.85C39.375 5.85 37.575 6.525 36.225 7.875C35.775 8.325 35.1 8.325 34.65 8.1C34.2 8.1 33.75 7.425 33.75 6.75C33.75 2.925 30.825 0 27 0C23.175 0 20.25 2.925 20.25 6.75V7.2C20.25 7.65 20.025 8.1 19.575 8.325C19.4794 8.325 19.4244 8.325 19.3755 8.34227C19.3094 8.36563 19.2544 8.42061 19.125 8.55C18.675 8.775 18 8.55 17.325 8.1C14.625 5.4 10.35 5.4 7.875 8.1C5.175 10.8 5.175 15.075 8.1 17.775C8.55 18.225 8.55 18.9 8.325 19.575C8.1 20.025 7.425 20.475 6.75 20.475C2.925 20.475 0 23.4 0 27.225C0 31.05 2.925 33.975 6.75 33.975H7.2C7.875 33.975 8.325 34.425 8.55 34.875C8.775 35.325 8.775 36 8.1 36.675C6.75 38.025 6.075 39.6 6.075 41.4C6.075 43.2 6.75 44.775 8.1 46.125C10.8 48.825 15.075 48.825 17.775 45.9C18.225 45.45 18.9 45.45 19.575 45.675C20.25 45.9 20.475 46.35 20.475 47.25C20.475 51.075 23.4 54 27.225 54C31.05 54 33.975 51.075 33.975 47.25V46.8C33.975 46.125 34.425 45.675 34.875 45.45C35.325 45.225 36 45.225 36.675 45.9C39.375 48.6 43.65 48.6 46.125 45.9C48.825 43.2 48.825 38.925 45.9 36.225C45.675 35.775 45.45 35.1 45.675 34.65ZM18 27C18 22.05 22.05 18 27 18C31.95 18 36 22.05 36 27C36 31.95 31.95 36 27 36C22.05 36 18 31.95 18 27ZM22.5 27C22.5 29.475 24.525 31.5 27 31.5C29.475 31.5 31.5 29.475 31.5 27C31.5 24.525 29.475 22.5 27 22.5C24.525 22.5 22.5 24.525 22.5 27ZM42.975 39.6C41.175 37.575 40.725 35.1 41.625 32.85C42.525 30.6 44.775 29.25 47.025 29.25C48.6 29.25 49.5 28.35 49.5 27C49.5 25.65 48.6 24.75 47.25 24.75H46.8C44.55 24.75 42.3 23.4 41.4 21.15C41.175 20.925 41.175 20.7 41.175 20.475C40.5 18.45 40.95 15.975 42.525 14.4C43.65 13.275 43.65 11.925 42.75 11.025C42.3 10.575 41.85 10.35 41.175 10.35C40.5 10.35 40.05 10.575 39.6 11.025C37.575 12.825 35.1 13.275 32.85 12.375C30.6 11.475 29.25 9.45 29.25 6.975C29.25 5.4 28.35 4.5 27 4.5C25.65 4.5 24.75 5.4 24.75 6.75V7.2C24.75 9.45 23.4 11.7 21.15 12.6C20.925 12.825 20.7 12.825 20.475 12.825C18.45 13.5 15.975 13.05 14.4 11.475C13.275 10.35 11.925 10.35 11.025 11.25C10.125 12.15 10.125 13.5 11.025 14.4C12.825 16.425 13.275 18.9 12.375 21.15C11.475 23.4 9.45 24.975 6.975 24.975H6.75C5.4 24.975 4.5 25.875 4.5 27.225C4.5 28.575 5.4 29.475 6.75 29.475H7.2C9.45 29.475 11.7 30.825 12.6 33.075C13.725 35.325 13.275 37.8 11.475 39.6C10.8 40.275 10.575 40.725 10.575 41.4C10.575 42.075 10.8 42.525 11.25 42.975C12.15 43.875 13.5 43.875 14.4 42.975C15.525 41.85 17.1 41.175 18.675 41.175C19.575 41.175 20.475 41.175 21.15 41.625C23.4 42.525 24.975 44.55 24.975 47.025V47.25C24.975 48.6 25.875 49.5 27.225 49.5C28.575 49.5 29.475 48.6 29.475 47.25V46.8C29.475 44.55 30.825 42.3 33.075 41.4C35.325 40.275 37.8 40.725 39.6 42.525C40.275 43.2 40.725 43.425 41.4 43.425C42.075 43.425 42.525 43.2 42.975 42.75C43.425 42.3 43.65 41.85 43.65 41.175C43.65 40.5 43.425 40.05 42.975 39.6Z" fill="#B9A46C" fill-opacity="0.4"/>
<mask id="mask0_265_1821" style="mask-type:luminance" maskUnits="userSpaceOnUse" x="0" y="0" width="54" height="54">
<path fill-rule="evenodd" clip-rule="evenodd" d="M45.675 34.65C45.9 34.2 46.35 33.75 47.25 33.75C51.075 33.75 54 30.825 54 27C54 23.175 51.075 20.25 47.25 20.25H46.8C46.35 20.25 45.9 20.025 45.675 19.575C45.675 19.35 45.675 19.35 45.45 19.125C45.225 18.675 45.225 18 45.9 17.325C48.6 14.625 48.6 10.35 45.9 7.875C44.55 6.525 42.975 5.85 41.175 5.85C39.375 5.85 37.575 6.525 36.225 7.875C35.775 8.325 35.1 8.325 34.65 8.1C34.2 8.1 33.75 7.425 33.75 6.75C33.75 2.925 30.825 0 27 0C23.175 0 20.25 2.925 20.25 6.75V7.2C20.25 7.65 20.025 8.1 19.575 8.325C19.4794 8.325 19.4244 8.325 19.3755 8.34227C19.3094 8.36563 19.2544 8.42061 19.125 8.55C18.675 8.775 18 8.55 17.325 8.1C14.625 5.4 10.35 5.4 7.875 8.1C5.175 10.8 5.175 15.075 8.1 17.775C8.55 18.225 8.55 18.9 8.325 19.575C8.1 20.025 7.425 20.475 6.75 20.475C2.925 20.475 0 23.4 0 27.225C0 31.05 2.925 33.975 6.75 33.975H7.2C7.875 33.975 8.325 34.425 8.55 34.875C8.775 35.325 8.775 36 8.1 36.675C6.75 38.025 6.075 39.6 6.075 41.4C6.075 43.2 6.75 44.775 8.1 46.125C10.8 48.825 15.075 48.825 17.775 45.9C18.225 45.45 18.9 45.45 19.575 45.675C20.25 45.9 20.475 46.35 20.475 47.25C20.475 51.075 23.4 54 27.225 54C31.05 54 33.975 51.075 33.975 47.25V46.8C33.975 46.125 34.425 45.675 34.875 45.45C35.325 45.225 36 45.225 36.675 45.9C39.375 48.6 43.65 48.6 46.125 45.9C48.825 43.2 48.825 38.925 45.9 36.225C45.675 35.775 45.45 35.1 45.675 34.65ZM18 27C18 22.05 22.05 18 27 18C31.95 18 36 22.05 36 27C36 31.95 31.95 36 27 36C22.05 36 18 31.95 18 27ZM22.5 27C22.5 29.475 24.525 31.5 27 31.5C29.475 31.5 31.5 29.475 31.5 27C31.5 24.525 29.475 22.5 27 22.5C24.525 22.5 22.5 24.525 22.5 27ZM42.975 39.6C41.175 37.575 40.725 35.1 41.625 32.85C42.525 30.6 44.775 29.25 47.025 29.25C48.6 29.25 49.5 28.35 49.5 27C49.5 25.65 48.6 24.75 47.25 24.75H46.8C44.55 24.75 42.3 23.4 41.4 21.15C41.175 20.925 41.175 20.7 41.175 20.475C40.5 18.45 40.95 15.975 42.525 14.4C43.65 13.275 43.65 11.925 42.75 11.025C42.3 10.575 41.85 10.35 41.175 10.35C40.5 10.35 40.05 10.575 39.6 11.025C37.575 12.825 35.1 13.275 32.85 12.375C30.6 11.475 29.25 9.45 29.25 6.975C29.25 5.4 28.35 4.5 27 4.5C25.65 4.5 24.75 5.4 24.75 6.75V7.2C24.75 9.45 23.4 11.7 21.15 12.6C20.925 12.825 20.7 12.825 20.475 12.825C18.45 13.5 15.975 13.05 14.4 11.475C13.275 10.35 11.925 10.35 11.025 11.25C10.125 12.15 10.125 13.5 11.025 14.4C12.825 16.425 13.275 18.9 12.375 21.15C11.475 23.4 9.45 24.975 6.975 24.975H6.75C5.4 24.975 4.5 25.875 4.5 27.225C4.5 28.575 5.4 29.475 6.75 29.475H7.2C9.45 29.475 11.7 30.825 12.6 33.075C13.725 35.325 13.275 37.8 11.475 39.6C10.8 40.275 10.575 40.725 10.575 41.4C10.575 42.075 10.8 42.525 11.25 42.975C12.15 43.875 13.5 43.875 14.4 42.975C15.525 41.85 17.1 41.175 18.675 41.175C19.575 41.175 20.475 41.175 21.15 41.625C23.4 42.525 24.975 44.55 24.975 47.025V47.25C24.975 48.6 25.875 49.5 27.225 49.5C28.575 49.5 29.475 48.6 29.475 47.25V46.8C29.475 44.55 30.825 42.3 33.075 41.4C35.325 40.275 37.8 40.725 39.6 42.525C40.275 43.2 40.725 43.425 41.4 43.425C42.075 43.425 42.525 43.2 42.975 42.75C43.425 42.3 43.65 41.85 43.65 41.175C43.65 40.5 43.425 40.05 42.975 39.6Z" fill="white"/>
</mask>
<g mask="url(#mask0_265_1821)">
<path fill-rule="evenodd" clip-rule="evenodd" d="M0 0H54V54H0V0Z" fill="#B9A46C" fill-opacity="0.4"/>
</g>
</g>
<defs>
<filter id="filter0_d_265_1821" x="0" y="0" width="60" height="60" filterUnits="userSpaceOnUse" color-interpolation-filters="sRGB">
<feFlood flood-opacity="0" result="BackgroundImageFix"/>
<feColorMatrix in="SourceAlpha" type="matrix" values="0 0 0 0 0 0 0 0 0 0 0 0 0 0 0 0 0 0 127 0" result="hardAlpha"/>
<feOffset dx="4" dy="4"/>
<feGaussianBlur stdDeviation="1"/>
<feComposite in2="hardAlpha" operator="out"/>
<feColorMatrix type="matrix" values="0 0 0 0 0 0 0 0 0 0 0 0 0 0 0 0 0 0 0.75 0"/>
<feBlend mode="normal" in2="BackgroundImageFix" result="effect1_dropShadow_265_1821"/>
<feBlend mode="normal" in="SourceGraphic" in2="effect1_dropShadow_265_1821" result="shape"/>
</filter>
</defs>
</svg>
