<svg width="36" height="36" viewBox="0 0 36 36" fill="none" xmlns="http://www.w3.org/2000/svg">
<path fill-rule="evenodd" clip-rule="evenodd" d="M4.66003 17.6402C4.66003 10.3335 10.5833 4.41022 17.89 4.41022C25.1968 4.41022 31.12 10.3335 31.12 17.6402C31.12 24.9469 25.1968 30.8702 17.89 30.8702C10.5833 30.8702 4.66003 24.9469 4.66003 17.6402ZM17.89 1.47021C8.95959 1.47021 1.72003 8.70977 1.72003 17.6402C1.72003 26.5707 8.95959 33.8102 17.89 33.8102C26.8205 33.8102 34.06 26.5707 34.06 17.6402C34.06 8.70977 26.8205 1.47021 17.89 1.47021ZM16.8507 10.7208C17.4247 10.1467 18.3555 10.1467 18.9296 10.7208L24.8096 16.6008C25.3836 17.1748 25.3836 18.1056 24.8096 18.6797C24.2355 19.2537 23.3047 19.2537 22.7307 18.6797L19.3601 15.3091V23.52C19.3601 24.3319 18.702 24.99 17.8901 24.99C17.0782 24.99 16.4201 24.3319 16.4201 23.52V15.3091L13.0496 18.6797C12.4755 19.2537 11.5447 19.2537 10.9707 18.6797C10.3966 18.1056 10.3966 17.1748 10.9707 16.6008L16.8507 10.7208Z" fill="#CFBE86" fill-opacity="0.6"/>
</svg>
