<svg width="36" height="36" viewBox="0 0 36 36" fill="none" xmlns="http://www.w3.org/2000/svg">
<path fill-rule="evenodd" clip-rule="evenodd" d="M17.64 4.41022C10.3333 4.41022 4.41003 10.3335 4.41003 17.6402C4.41003 24.9469 10.3333 30.8702 17.64 30.8702C24.9468 30.8702 30.87 24.9469 30.87 17.6402C30.87 10.3335 24.9468 4.41022 17.64 4.41022ZM1.47003 17.6402C1.47003 8.70977 8.70959 1.47021 17.64 1.47021C26.5705 1.47021 33.81 8.70977 33.81 17.6402C33.81 26.5707 26.5705 33.8102 17.64 33.8102C8.70959 33.8102 1.47003 26.5707 1.47003 17.6402ZM10.7207 16.6005C11.2947 16.0265 12.2255 16.0265 12.7996 16.6005L16.1701 19.9711V11.7602C16.1701 10.9484 16.8283 10.2902 17.6401 10.2902C18.452 10.2902 19.1101 10.9484 19.1101 11.7602V19.9711L22.4807 16.6005C23.0547 16.0265 23.9855 16.0265 24.5596 16.6005C25.1336 17.1746 25.1336 18.1054 24.5596 18.6794L18.6962 24.5428C18.4289 24.8187 18.0546 24.9902 17.6401 24.9902C17.2267 24.9902 16.853 24.8195 16.5859 24.5447L10.7207 18.6794C10.1466 18.1054 10.1466 17.1746 10.7207 16.6005Z" fill="#CFBE86" fill-opacity="0.6"/>
</svg>
