<svg width="49" height="49" viewBox="0 0 49 49" fill="none" xmlns="http://www.w3.org/2000/svg">
<g filter="url(#filter0_d_115_2240)">
<path d="M42.2625 15.7208L19.8042 38.1792C19.3958 38.5875 18.9875 38.7917 18.375 38.7917C17.7625 38.7917 17.3542 38.5875 16.9458 38.1792L6.7375 27.9708C5.92083 27.1542 5.92083 25.9292 6.7375 25.1125C7.55417 24.2958 8.77917 24.2958 9.59583 25.1125L18.375 33.8917L39.4042 12.8625C40.2208 12.0458 41.4458 12.0458 42.2625 12.8625C43.0792 13.6792 43.0792 14.9042 42.2625 15.7208Z" fill="#B9A46C"/>
<mask id="mask0_115_2240" style="mask-type:luminance" maskUnits="userSpaceOnUse" x="6" y="12" width="37" height="27">
<path d="M42.2625 15.7208L19.8042 38.1792C19.3958 38.5875 18.9875 38.7917 18.375 38.7917C17.7625 38.7917 17.3542 38.5875 16.9458 38.1792L6.7375 27.9708C5.92083 27.1542 5.92083 25.9292 6.7375 25.1125C7.55417 24.2958 8.77917 24.2958 9.59583 25.1125L18.375 33.8917L39.4042 12.8625C40.2208 12.0458 41.4458 12.0458 42.2625 12.8625C43.0792 13.6792 43.0792 14.9042 42.2625 15.7208Z" fill="white"/>
</mask>
<g mask="url(#mask0_115_2240)">
<path fill-rule="evenodd" clip-rule="evenodd" d="M0 0H49V49H0V0Z" fill="#B9A46C"/>
</g>
</g>
<defs>
<filter id="filter0_d_115_2240" x="-1" y="0" width="55" height="56" filterUnits="userSpaceOnUse" color-interpolation-filters="sRGB">
<feFlood flood-opacity="0" result="BackgroundImageFix"/>
<feColorMatrix in="SourceAlpha" type="matrix" values="0 0 0 0 0 0 0 0 0 0 0 0 0 0 0 0 0 0 127 0" result="hardAlpha"/>
<feOffset dx="2" dy="4"/>
<feGaussianBlur stdDeviation="1.5"/>
<feComposite in2="hardAlpha" operator="out"/>
<feColorMatrix type="matrix" values="0 0 0 0 0 0 0 0 0 0 0 0 0 0 0 0 0 0 0.7 0"/>
<feBlend mode="normal" in2="BackgroundImageFix" result="effect1_dropShadow_115_2240"/>
<feBlend mode="normal" in="SourceGraphic" in2="effect1_dropShadow_115_2240" result="shape"/>
</filter>
</defs>
</svg>
