<svg width="49" height="49" viewBox="0 0 49 49" fill="none" xmlns="http://www.w3.org/2000/svg">
<g filter="url(#filter0_d_89_1835)">
<path fill-rule="evenodd" clip-rule="evenodd" d="M13.6792 12.8625L23.8875 23.0708C24.7042 23.8875 24.7042 25.1125 23.8875 25.9292L13.6792 36.1375C13.2708 36.5458 12.8625 36.75 12.25 36.75C11.6375 36.75 11.2292 36.5458 10.8208 36.1375C10.0042 35.3208 10.0042 34.0958 10.8208 33.2792L19.6 24.5L10.8208 15.7208C10.0042 14.9042 10.0042 13.6792 10.8208 12.8625C11.6375 12.0458 12.8625 12.0458 13.6792 12.8625ZM27.9708 36.1375L38.1792 25.9292C38.9958 25.1125 38.9958 23.8875 38.1792 23.0708L27.9708 12.8625C27.1542 12.0458 25.9292 12.0458 25.1125 12.8625C24.2958 13.6792 24.2958 14.9042 25.1125 15.7208L33.8917 24.5L25.1125 33.2792C24.2958 34.0958 24.2958 35.3208 25.1125 36.1375C25.5208 36.5458 25.9292 36.75 26.5417 36.75C27.1542 36.75 27.5625 36.5458 27.9708 36.1375Z" fill="#212529"/>
<mask id="mask0_89_1835" style="mask-type:luminance" maskUnits="userSpaceOnUse" x="10" y="12" width="29" height="25">
<path fill-rule="evenodd" clip-rule="evenodd" d="M13.6792 12.8625L23.8875 23.0708C24.7042 23.8875 24.7042 25.1125 23.8875 25.9292L13.6792 36.1375C13.2708 36.5458 12.8625 36.75 12.25 36.75C11.6375 36.75 11.2292 36.5458 10.8208 36.1375C10.0042 35.3208 10.0042 34.0958 10.8208 33.2792L19.6 24.5L10.8208 15.7208C10.0042 14.9042 10.0042 13.6792 10.8208 12.8625C11.6375 12.0458 12.8625 12.0458 13.6792 12.8625ZM27.9708 36.1375L38.1792 25.9292C38.9958 25.1125 38.9958 23.8875 38.1792 23.0708L27.9708 12.8625C27.1542 12.0458 25.9292 12.0458 25.1125 12.8625C24.2958 13.6792 24.2958 14.9042 25.1125 15.7208L33.8917 24.5L25.1125 33.2792C24.2958 34.0958 24.2958 35.3208 25.1125 36.1375C25.5208 36.5458 25.9292 36.75 26.5417 36.75C27.1542 36.75 27.5625 36.5458 27.9708 36.1375Z" fill="white"/>
</mask>
<g mask="url(#mask0_89_1835)">
<g filter="url(#filter1_d_89_1835)">
<path fill-rule="evenodd" clip-rule="evenodd" d="M0 0H49V49H0V0Z" fill="#B9A46C"/>
</g>
</g>
</g>
<defs>
<filter id="filter0_d_89_1835" x="-1" y="0" width="55" height="56" filterUnits="userSpaceOnUse" color-interpolation-filters="sRGB">
<feFlood flood-opacity="0" result="BackgroundImageFix"/>
<feColorMatrix in="SourceAlpha" type="matrix" values="0 0 0 0 0 0 0 0 0 0 0 0 0 0 0 0 0 0 127 0" result="hardAlpha"/>
<feOffset dx="2" dy="4"/>
<feGaussianBlur stdDeviation="1.5"/>
<feComposite in2="hardAlpha" operator="out"/>
<feColorMatrix type="matrix" values="0 0 0 0 0 0 0 0 0 0 0 0 0 0 0 0 0 0 0.7 0"/>
<feBlend mode="normal" in2="BackgroundImageFix" result="effect1_dropShadow_89_1835"/>
<feBlend mode="normal" in="SourceGraphic" in2="effect1_dropShadow_89_1835" result="shape"/>
</filter>
<filter id="filter1_d_89_1835" x="-4" y="0" width="57" height="57" filterUnits="userSpaceOnUse" color-interpolation-filters="sRGB">
<feFlood flood-opacity="0" result="BackgroundImageFix"/>
<feColorMatrix in="SourceAlpha" type="matrix" values="0 0 0 0 0 0 0 0 0 0 0 0 0 0 0 0 0 0 127 0" result="hardAlpha"/>
<feOffset dy="4"/>
<feGaussianBlur stdDeviation="2"/>
<feComposite in2="hardAlpha" operator="out"/>
<feColorMatrix type="matrix" values="0 0 0 0 0 0 0 0 0 0 0 0 0 0 0 0 0 0 0.25 0"/>
<feBlend mode="normal" in2="BackgroundImageFix" result="effect1_dropShadow_89_1835"/>
<feBlend mode="normal" in="SourceGraphic" in2="effect1_dropShadow_89_1835" result="shape"/>
</filter>
</defs>
</svg>
