<svg width="55" height="56" viewBox="0 0 55 56" fill="none" xmlns="http://www.w3.org/2000/svg">
<g filter="url(#filter0_d_350_445)">
<path d="M1.08624 5.33665C1.08624 2.68971 3.23201 0.543945 5.87895 0.543945H44.9487C47.5956 0.543945 49.7414 2.68971 49.7414 5.33665V44.4064C49.7414 47.0533 47.5956 49.1991 44.9487 49.1991H5.87894C3.23201 49.1991 1.08624 47.0533 1.08624 44.4064V5.33665Z" fill="#B9A46C" fill-opacity="0.25" shape-rendering="crispEdges"/>
<path d="M5.87895 1.02322H44.9487C47.3309 1.02322 49.2621 2.95441 49.2621 5.33665V44.4064C49.2621 46.7886 47.3309 48.7198 44.9487 48.7198H5.87894C3.4967 48.7198 1.56551 46.7886 1.56551 44.4064V5.33665C1.56551 2.9544 3.4967 1.02322 5.87895 1.02322Z" stroke="black" stroke-opacity="0.3" stroke-width="0.958541" shape-rendering="crispEdges"/>
</g>
<defs>
<filter id="filter0_d_350_445" x="0.127702" y="0.543945" width="54.4064" height="55.3651" filterUnits="userSpaceOnUse" color-interpolation-filters="sRGB">
<feFlood flood-opacity="0" result="BackgroundImageFix"/>
<feColorMatrix in="SourceAlpha" type="matrix" values="0 0 0 0 0 0 0 0 0 0 0 0 0 0 0 0 0 0 127 0" result="hardAlpha"/>
<feOffset dx="1.91708" dy="3.83416"/>
<feGaussianBlur stdDeviation="1.43781"/>
<feComposite in2="hardAlpha" operator="out"/>
<feColorMatrix type="matrix" values="0 0 0 0 0 0 0 0 0 0 0 0 0 0 0 0 0 0 0.5 0"/>
<feBlend mode="normal" in2="BackgroundImageFix" result="effect1_dropShadow_350_445"/>
<feBlend mode="normal" in="SourceGraphic" in2="effect1_dropShadow_350_445" result="shape"/>
</filter>
</defs>
</svg>
