<svg width="66" height="67" viewBox="0 0 66 67" fill="none" xmlns="http://www.w3.org/2000/svg">
<g filter="url(#filter0_d_103_2535)">
<path d="M36.5615 42.532C35.0879 43.0662 33.6143 43.3333 32.1408 43.3333C26.6483 43.3333 21.4238 39.8609 19.5484 34.3851C19.2805 33.7174 19.6823 32.916 20.3522 32.6489C21.022 32.3818 21.8257 32.7825 22.0937 33.4503C24.1031 39.0596 30.1313 41.9978 35.7577 39.9945C41.3841 37.9911 44.3313 31.9811 42.3218 26.3718C41.3841 23.7007 39.3747 21.5639 36.8294 20.2283C34.2841 19.0263 31.337 18.8928 28.6578 19.8276C27.1842 20.3619 25.7106 21.1632 24.6389 22.3652L20.754 25.9712H25.4427C26.2465 25.9712 26.7823 26.5054 26.7823 27.3067C26.7823 28.1081 26.2465 28.6423 25.4427 28.6423H17.405C17.271 28.6423 17.1371 28.6423 17.1371 28.6423H17.0031L16.8692 28.5087C16.7352 28.5087 16.7352 28.3752 16.6012 28.3752C16.6012 28.3752 16.6012 28.2416 16.4673 28.2416C16.4673 28.1081 16.3333 28.1081 16.3333 27.9745C16.3333 27.8409 16.3333 27.7074 16.3333 27.7074V27.5738V19.2934C16.3333 18.4921 16.8692 17.9579 17.6729 17.9579C18.4767 17.9579 19.0125 18.4921 19.0125 19.2934V24.235L23.0314 20.4954C24.371 19.1599 26.1125 18.0914 27.988 17.4236C31.337 16.2216 34.954 16.4888 38.169 17.9579C41.3841 19.5605 43.7954 22.2316 45.0011 25.5705C47.2784 32.5154 43.5275 40.128 36.5615 42.532Z" fill="#B9A46C" fill-opacity="0.3"/>
<mask id="mask0_103_2535" style="mask-type:luminance" maskUnits="userSpaceOnUse" x="16" y="16" width="30" height="28">
<path d="M36.5615 42.532C35.0879 43.0662 33.6143 43.3333 32.1408 43.3333C26.6483 43.3333 21.4238 39.8609 19.5484 34.3851C19.2805 33.7174 19.6823 32.916 20.3522 32.6489C21.022 32.3818 21.8257 32.7825 22.0937 33.4503C24.1031 39.0596 30.1313 41.9978 35.7577 39.9945C41.3841 37.9911 44.3313 31.9811 42.3218 26.3718C41.3841 23.7007 39.3747 21.5639 36.8294 20.2283C34.2841 19.0263 31.337 18.8928 28.6578 19.8276C27.1842 20.3619 25.7106 21.1632 24.6389 22.3652L20.754 25.9712H25.4427C26.2465 25.9712 26.7823 26.5054 26.7823 27.3067C26.7823 28.1081 26.2465 28.6423 25.4427 28.6423H17.405C17.271 28.6423 17.1371 28.6423 17.1371 28.6423H17.0031L16.8692 28.5087C16.7352 28.5087 16.7352 28.3752 16.6012 28.3752C16.6012 28.3752 16.6012 28.2416 16.4673 28.2416C16.4673 28.1081 16.3333 28.1081 16.3333 27.9745C16.3333 27.8409 16.3333 27.7074 16.3333 27.7074V27.5738V19.2934C16.3333 18.4921 16.8692 17.9579 17.6729 17.9579C18.4767 17.9579 19.0125 18.4921 19.0125 19.2934V24.235L23.0314 20.4954C24.371 19.1599 26.1125 18.0914 27.988 17.4236C31.337 16.2216 34.954 16.4888 38.169 17.9579C41.3841 19.5605 43.7954 22.2316 45.0011 25.5705C47.2784 32.5154 43.5275 40.128 36.5615 42.532Z" fill="white"/>
</mask>
<g mask="url(#mask0_103_2535)">
<path fill-rule="evenodd" clip-rule="evenodd" d="M15 14H47V46H15V14Z" fill="#B9A46C" fill-opacity="0.3"/>
</g>
<path fill-rule="evenodd" clip-rule="evenodd" d="M13.5 5H48.5C52.75 5 56 8.25 56 12.5V47.5C56 51.75 52.75 55 48.5 55H13.5C9.25 55 6 51.75 6 47.5V12.5C6 8.25 9.25 5 13.5 5ZM48.5 50C50 50 51 49 51 47.5V12.5C51 11 50 10 48.5 10H13.5C12 10 11 11 11 12.5V47.5C11 49 12 50 13.5 50H48.5Z" fill="#B9A46C" fill-opacity="0.3"/>
<mask id="mask1_103_2535" style="mask-type:luminance" maskUnits="userSpaceOnUse" x="6" y="5" width="50" height="50">
<path fill-rule="evenodd" clip-rule="evenodd" d="M13.5 5H48.5C52.75 5 56 8.25 56 12.5V47.5C56 51.75 52.75 55 48.5 55H13.5C9.25 55 6 51.75 6 47.5V12.5C6 8.25 9.25 5 13.5 5ZM48.5 50C50 50 51 49 51 47.5V12.5C51 11 50 10 48.5 10H13.5C12 10 11 11 11 12.5V47.5C11 49 12 50 13.5 50H48.5Z" fill="white"/>
</mask>
<g mask="url(#mask1_103_2535)">
<path fill-rule="evenodd" clip-rule="evenodd" d="M1 0H61V60H1V0Z" fill="#B9A46C" fill-opacity="0.3"/>
</g>
</g>
<defs>
<filter id="filter0_d_103_2535" x="0" y="0" width="66" height="67" filterUnits="userSpaceOnUse" color-interpolation-filters="sRGB">
<feFlood flood-opacity="0" result="BackgroundImageFix"/>
<feColorMatrix in="SourceAlpha" type="matrix" values="0 0 0 0 0 0 0 0 0 0 0 0 0 0 0 0 0 0 127 0" result="hardAlpha"/>
<feOffset dx="2" dy="4"/>
<feGaussianBlur stdDeviation="1.5"/>
<feComposite in2="hardAlpha" operator="out"/>
<feColorMatrix type="matrix" values="0 0 0 0 0 0 0 0 0 0 0 0 0 0 0 0 0 0 0.75 0"/>
<feBlend mode="normal" in2="BackgroundImageFix" result="effect1_dropShadow_103_2535"/>
<feBlend mode="normal" in="SourceGraphic" in2="effect1_dropShadow_103_2535" result="shape"/>
</filter>
</defs>
</svg>
