<svg width="66" height="67" viewBox="0 0 66 67" fill="none" xmlns="http://www.w3.org/2000/svg">
<g filter="url(#filter0_d_115_2295)">
<path fill-rule="evenodd" clip-rule="evenodd" d="M13.5 5H48.5C52.75 5 56 8.25 56 12.5V47.5C56 51.75 52.75 55 48.5 55H13.5C9.25 55 6 51.75 6 47.5V12.5C6 8.25 9.25 5 13.5 5ZM48.5 50C50 50 51 49 51 47.5V12.5C51 11 50 10 48.5 10H13.5C12 10 11 11 11 12.5V47.5C11 49 12 50 13.5 50H48.5Z" fill="#B9A46C" fill-opacity="0.3"/>
<mask id="mask0_115_2295" style="mask-type:luminance" maskUnits="userSpaceOnUse" x="6" y="5" width="50" height="50">
<path fill-rule="evenodd" clip-rule="evenodd" d="M13.5 5H48.5C52.75 5 56 8.25 56 12.5V47.5C56 51.75 52.75 55 48.5 55H13.5C9.25 55 6 51.75 6 47.5V12.5C6 8.25 9.25 5 13.5 5ZM48.5 50C50 50 51 49 51 47.5V12.5C51 11 50 10 48.5 10H13.5C12 10 11 11 11 12.5V47.5C11 49 12 50 13.5 50H48.5Z" fill="white"/>
</mask>
<g mask="url(#mask0_115_2295)">
<path fill-rule="evenodd" clip-rule="evenodd" d="M1 0H61V60H1V0Z" fill="#B9A46C" fill-opacity="0.3"/>
</g>
<path fill-rule="evenodd" clip-rule="evenodd" d="M44.3453 16.6667C44.8787 16.6667 45.2787 16.9333 45.5453 17.4667C45.812 17.8667 45.6787 18.4 45.412 18.8L35.012 31.0667V42C35.012 42.5333 34.7453 42.9333 34.3453 43.2C34.212 43.3333 33.9453 43.3333 33.6787 43.3333C33.412 43.3333 33.2787 43.3333 33.1453 43.2L27.812 40.5333C27.2787 40.2667 27.012 39.8667 27.012 39.3333V31.0667L16.612 18.8C16.3453 18.4 16.212 17.8667 16.4787 17.4667C16.7453 16.9333 17.1453 16.6667 17.6787 16.6667H44.3453ZM32.3453 30.6667C32.3453 30.2667 32.4787 30 32.612 29.7333L41.5453 19.3333H20.612L29.412 29.8667C29.5453 30 29.6787 30.4 29.6787 30.6667V38.5333L32.3453 39.8667V30.6667Z" fill="#B9A46C" fill-opacity="0.3"/>
<mask id="mask1_115_2295" style="mask-type:luminance" maskUnits="userSpaceOnUse" x="16" y="16" width="30" height="28">
<path fill-rule="evenodd" clip-rule="evenodd" d="M44.3453 16.6667C44.8787 16.6667 45.2787 16.9333 45.5453 17.4667C45.812 17.8667 45.6787 18.4 45.412 18.8L35.012 31.0667V42C35.012 42.5333 34.7453 42.9333 34.3453 43.2C34.212 43.3333 33.9453 43.3333 33.6787 43.3333C33.412 43.3333 33.2787 43.3333 33.1453 43.2L27.812 40.5333C27.2787 40.2667 27.012 39.8667 27.012 39.3333V31.0667L16.612 18.8C16.3453 18.4 16.212 17.8667 16.4787 17.4667C16.7453 16.9333 17.1453 16.6667 17.6787 16.6667H44.3453ZM32.3453 30.6667C32.3453 30.2667 32.4787 30 32.612 29.7333L41.5453 19.3333H20.612L29.412 29.8667C29.5453 30 29.6787 30.4 29.6787 30.6667V38.5333L32.3453 39.8667V30.6667Z" fill="white"/>
</mask>
<g mask="url(#mask1_115_2295)">
<path fill-rule="evenodd" clip-rule="evenodd" d="M15 14H47V46H15V14Z" fill="#B9A46C" fill-opacity="0.3"/>
</g>
</g>
<defs>
<filter id="filter0_d_115_2295" x="0" y="0" width="66" height="67" filterUnits="userSpaceOnUse" color-interpolation-filters="sRGB">
<feFlood flood-opacity="0" result="BackgroundImageFix"/>
<feColorMatrix in="SourceAlpha" type="matrix" values="0 0 0 0 0 0 0 0 0 0 0 0 0 0 0 0 0 0 127 0" result="hardAlpha"/>
<feOffset dx="2" dy="4"/>
<feGaussianBlur stdDeviation="1.5"/>
<feComposite in2="hardAlpha" operator="out"/>
<feColorMatrix type="matrix" values="0 0 0 0 0 0 0 0 0 0 0 0 0 0 0 0 0 0 0.75 0"/>
<feBlend mode="normal" in2="BackgroundImageFix" result="effect1_dropShadow_115_2295"/>
<feBlend mode="normal" in="SourceGraphic" in2="effect1_dropShadow_115_2295" result="shape"/>
</filter>
</defs>
</svg>
